<?xml version="1.0" standalone="no"?>
<!DOCTYPE svg PUBLIC "-//W3C//DTD SVG 20010904//EN"
 "http://www.w3.org/TR/2001/REC-SVG-20010904/DTD/svg10.dtd">
<svg version="1.0" xmlns="http://www.w3.org/2000/svg"
 width="512.000000pt" height="512.000000pt" viewBox="0 0 512.000000 512.000000"
 preserveAspectRatio="xMidYMid meet">
<metadata>
Created by potrace 1.14, written by Peter Selinger 2001-2017
</metadata>
<g transform="translate(0.000000,512.000000) scale(0.100000,-0.100000)"
fill="#000000" stroke="none">
<path d="M2378 5115 c-2 -1 -34 -5 -73 -8 -190 -17 -495 -88 -650 -152 -127
-52 -205 -89 -205 -96 0 -15 62 -139 70 -139 4 0 41 15 81 34 210 95 489 167
749 191 83 8 339 9 405 1 28 -3 75 -8 105 -11 30 -3 62 -8 70 -10 8 -2 35 -7
60 -10 206 -28 551 -155 768 -282 40 -24 77 -41 81 -39 4 3 25 33 46 67 l38
62 -24 18 c-42 33 -360 187 -463 224 -173 63 -401 116 -606 141 -53 6 -446 14
-452 9z"/>
<path d="M1222 4741 c-34 -21 -65 -40 -67 -43 -4 -4 64 -118 81 -137 4 -4 122
67 129 79 3 5 -7 30 -23 57 -15 26 -31 56 -35 66 -9 23 -13 22 -85 -22z"/>
<path d="M4315 4618 c-27 -4 -88 -26 -134 -50 -47 -23 -92 -43 -100 -45 -9 -1
-38 -5 -66 -8 -125 -16 -248 -57 -317 -106 -39 -28 -68 -93 -61 -138 9 -55 75
-112 163 -144 41 -14 100 -31 131 -37 54 -10 57 -12 80 -62 30 -63 114 -150
177 -182 105 -52 242 -59 338 -17 55 25 48 32 124 -105 122 -220 234 -530 266
-739 4 -27 9 -57 10 -65 24 -126 34 -406 20 -565 -78 -875 -622 -1632 -1426
-1987 -179 -79 -385 -141 -560 -168 -41 -6 -86 -13 -100 -16 -100 -17 -327
-21 -480 -10 -158 13 -252 27 -374 57 -43 11 -80 18 -82 16 -5 -5 -44 -138
-44 -148 0 -11 227 -62 330 -74 25 -3 63 -8 85 -11 69 -10 416 -12 495 -3 103
11 169 20 194 25 12 2 37 7 56 10 19 3 87 19 150 34 408 101 823 329 1129 624
225 215 388 434 525 706 116 228 210 516 242 740 2 19 6 44 9 55 27 132 27
553 -1 710 -3 17 -7 41 -9 55 -42 293 -173 650 -334 910 l-48 76 31 61 31 61
64 12 c240 48 352 175 255 290 -31 36 -116 81 -195 104 -54 15 -72 19 -164 32
-82 11 -87 12 -125 39 -76 53 -189 78 -285 63z m-338 -320 c-5 -24 -11 -44
-11 -45 -3 -4 -103 25 -122 35 -15 8 -8 13 46 30 97 31 100 30 87 -20z m858
28 c107 -29 108 -31 31 -55 -38 -12 -73 -18 -77 -14 -10 12 -21 83 -12 83 4 0
31 -6 58 -14z"/>
<path d="M965 4564 c-16 -14 -59 -51 -94 -82 -490 -430 -796 -1025 -859 -1672
-14 -148 -7 -493 12 -605 3 -16 8 -43 10 -60 48 -324 182 -673 370 -965 132
-206 281 -376 500 -572 38 -34 39 -36 26 -69 -7 -19 -14 -65 -17 -102 -16
-222 157 -419 380 -432 128 -7 229 31 320 121 46 45 100 141 112 199 19 98 -5
234 -56 308 -138 202 -388 249 -588 112 l-49 -34 -134 132 c-148 145 -203 209
-295 337 -211 296 -347 631 -408 1005 -3 17 -7 44 -10 60 -8 50 -18 215 -18
305 -1 92 11 302 18 323 2 6 6 30 9 52 52 386 232 799 491 1125 77 97 259 281
355 360 36 29 64 55 64 57 -6 19 -90 123 -98 123 -6 0 -24 -12 -41 -26z"/>
<path d="M2428 4456 c-1 -2 -37 -7 -78 -10 -105 -10 -295 -51 -398 -87 -113
-39 -326 -143 -427 -209 -259 -169 -488 -415 -626 -675 -23 -44 -44 -82 -45
-84 -2 -2 -26 -5 -55 -8 -60 -5 -140 -38 -187 -78 -192 -162 -130 -481 111
-561 221 -73 451 110 431 343 -6 61 -55 163 -98 200 -18 16 -36 34 -39 40 -11
18 86 180 177 298 182 235 445 432 727 546 93 37 245 81 329 94 25 4 52 9 60
10 90 17 353 23 433 10 23 -4 54 -8 70 -11 207 -31 355 -80 545 -177 224 -114
430 -288 580 -487 31 -41 59 -79 64 -84 7 -9 138 70 138 83 0 4 -18 32 -40 62
-23 30 -51 68 -63 84 -43 58 -253 262 -327 316 -126 93 -138 101 -285 179
-153 81 -375 154 -566 185 -88 14 -420 30 -431 21z"/>
<path d="M2501 4123 c-30 -6 -93 -45 -121 -75 -140 -148 -40 -395 165 -412 82
-7 179 43 222 115 l16 27 58 -14 c359 -84 672 -334 832 -667 159 -328 163
-717 11 -1052 -81 -179 -223 -355 -382 -474 -18 -13 -32 -28 -32 -32 0 -5 20
-38 44 -73 l44 -64 58 46 c176 137 312 306 408 507 66 137 105 272 131 445 13
84 7 298 -11 390 -2 14 -6 34 -8 45 -101 524 -538 974 -1057 1090 -73 16 -77
18 -94 54 -38 85 -115 140 -203 146 -31 1 -68 1 -81 -2z"/>
<path d="M2112 3888 c-7 -7 -12 -9 -12 -5 0 8 -146 -55 -218 -94 -277 -152
-520 -430 -632 -721 -29 -74 -68 -224 -75 -283 -3 -27 -8 -62 -11 -76 -7 -37
-7 -235 1 -294 11 -91 15 -120 20 -135 2 -8 6 -26 9 -40 13 -77 85 -265 133
-348 24 -40 24 -44 10 -80 -16 -42 -15 -122 2 -167 36 -90 113 -146 213 -153
59 -4 74 -1 123 23 224 109 163 441 -85 462 -32 3 -72 1 -88 -5 -29 -10 -29
-10 -65 72 -42 95 -74 187 -82 236 -3 19 -11 55 -16 80 -24 107 -18 311 15
485 22 120 126 341 213 455 145 191 325 328 538 411 47 18 85 35 85 38 -1 22
-48 145 -56 148 -5 2 -15 -2 -22 -9z"/>
<path d="M2310 3534 c-19 -8 -62 -41 -95 -73 -59 -58 -61 -59 -130 -65 -124
-12 -182 -58 -218 -177 -16 -52 -45 -99 -61 -99 -8 0 -62 -37 -94 -65 -13 -11
-33 -38 -44 -59 -18 -35 -20 -51 -14 -136 l7 -96 -41 -68 c-67 -111 -66 -168
7 -282 32 -52 32 -53 30 -166 -2 -112 -1 -115 27 -152 16 -21 57 -56 92 -78
53 -33 66 -47 80 -86 60 -166 89 -192 228 -207 68 -7 71 -9 131 -66 99 -95
147 -106 271 -63 l74 25 76 -25 c42 -14 89 -26 105 -26 49 0 100 28 163 89 59
56 63 58 128 65 128 13 172 47 219 172 30 81 33 84 94 122 34 22 75 57 91 77
28 38 29 41 29 159 0 118 1 122 30 166 42 62 55 94 55 140 0 45 -11 74 -58
148 l-34 54 7 98 c6 81 4 103 -10 131 -25 49 -52 76 -117 115 -47 29 -59 42
-74 82 -25 68 -51 125 -66 144 -32 38 -112 65 -206 67 -15 1 -48 24 -85 60
-105 100 -146 110 -272 65 l-74 -26 -76 26 c-85 29 -125 32 -175 10z"/>
<path d="M4150 3443 c-36 -20 -67 -37 -69 -39 -4 -4 58 -134 64 -134 3 0 37
14 75 32 47 20 69 36 66 44 -15 38 -62 133 -66 133 -3 1 -34 -16 -70 -36z"/>
<path d="M4278 3175 c-37 -13 -72 -26 -77 -29 -5 -4 -1 -28 10 -58 23 -64 54
-205 69 -318 22 -159 13 -385 -21 -550 -21 -106 -23 -102 59 -123 41 -10 76
-17 78 -14 3 2 6 13 8 23 2 11 9 37 14 59 12 45 19 93 32 210 8 75 5 359 -4
415 -3 14 -7 41 -9 60 -14 91 -81 353 -90 349 -1 0 -32 -11 -69 -24z"/>
<path d="M664 2488 c2 -40 5 -78 5 -84 1 -10 25 -10 111 1 14 1 31 3 38 4 10
1 13 21 11 76 l-2 75 -83 0 -84 0 4 -72z"/>
<path d="M800 2260 c-19 -4 -52 -11 -73 -14 -42 -8 -42 -4 -12 -133 112 -485
437 -927 871 -1183 220 -130 428 -203 709 -251 130 -21 417 -19 555 5 14 2 43
7 65 11 133 22 329 87 476 158 192 94 355 211 517 374 l113 113 46 -10 c153
-35 339 76 377 225 43 165 -33 329 -183 399 -70 32 -197 30 -271 -5 -69 -33
-124 -88 -158 -159 -23 -46 -27 -68 -27 -140 0 -86 10 -118 58 -191 l17 -26
-77 -79 c-93 -95 -179 -167 -277 -234 -73 -49 -235 -137 -291 -158 -117 -44
-150 -55 -230 -77 -49 -13 -124 -29 -165 -35 -41 -6 -86 -14 -100 -16 -57 -11
-332 -4 -425 10 -523 79 -960 367 -1238 817 -86 139 -174 358 -207 514 -18 88
-20 95 -28 94 -4 -1 -23 -5 -42 -9z"/>
<path d="M1846 1454 c-34 -53 -42 -72 -33 -81 24 -23 165 -93 257 -126 126
-47 211 -67 345 -81 138 -15 294 -9 400 14 22 5 55 12 73 15 75 13 293 97 312
120 8 9 2 28 -21 71 -17 33 -35 63 -39 68 -5 4 -43 -8 -87 -27 -92 -41 -172
-66 -258 -82 -204 -36 -416 -24 -610 35 -77 24 -250 103 -277 127 -15 14 -21
9 -62 -53z"/>
</g>
</svg>
